<svg viewBox="0 0 302 302" xmlns="http://www.w3.org/2000/svg"> <path class="filled" d="m128.2 42.3c-2.1.6-4.1-1.6-5.1-4.7l-1.4-4.5c-.6-2-1.8-3.3-4.5-2.5l-6.8 2 4.1 13.8-14.9 4.5-11.1-37 25.6-7.7c8.7-2.6 15.4.3 17.2 6.1l.3.9c1.1 3.6-.8 7.7-5.2 10.2 5.7-.9 9.1 1.9 10.3 5.8l1.1 3.6c.7 2.3 1.9 4.2 3.6 5.5l.1.2zm-10.9-22.7c-.7-2.4-2.4-2.9-5.9-1.9l-5 1.5 2.2 7.5 5-1.5c3.5-1 4.6-2.5 3.9-4.8z"/> <path class="filled" d="m143.5 39 4-38.5 38.2 3.9-1.1 10.7-22.7-2.4-.6 5.4 15 1.6-.6 5.5-15-1.6-.5 5.2 22.7 2.4-1.1 11.8z"/> <path class="filled" d="m202 54.2c-8.3-4.3-14-10.4-17.4-16.3l8.7-4.7c3.1 5 8.3 10.1 12.8 12.4 4.3 2.2 6.2 1.8 6.9.5 2.3-4.3-22.6-14-16-26.4 3.2-6.2 13.6-7.3 24.2-1.8 8.2 4.3 12.1 9.3 15.6 15.1l-8.8 4c-3.1-4.7-7.3-8.8-11.5-10.9-3.4-1.8-5.5-1.6-6.1-.4-2.5 4.7 22.8 14.4 16.5 26.4-3.7 6.9-14.6 7.5-24.9 2.1z"/> <path class="filled" d="m223.2 65.1 29.5-25 24.8 29.3-8.2 7-14.8-17.5-4.1 3.5 9.8 11.5-4.3 3.6-9.8-11.5-4 3.4 14.8 17.5-8.9 7.5z"/> <path class="filled" d="m259.2 126c-.7-2 1.5-4.1 4.6-5.1l4.5-1.4c2-.6 3.3-1.9 2.4-4.6l-2.2-6.7-13.7 4.4-4.8-14.8 36.8-11.9 8.2 25.4c2.8 8.7 0 15.4-5.8 17.3l-.9.3c-3.5 1.1-7.7-.7-10.3-5 1.1 5.7-1.7 9.2-5.6 10.4l-3.6 1.2c-2.3.7-4.2 2-5.4 3.7l-.2.1zm22.5-11.4c2.4-.8 2.9-2.5 1.7-5.9l-1.6-4.9-7.4 2.4 1.6 4.9c1.1 3.5 2.6 4.5 4.9 3.8z"/> <path class="filled" d="m260.4 168.8 1.4-14.9 40.1-13.4-1.6 16.9-23.7 6.9 21.9 11.6-1.4 14.1z"/> <path class="filled" d="m246.3 207.8 6.7.9 6.1-12.1-4.6-5.1 6.1-12.1 27.4 31.5-7.5 14.9-41.7-3.3zm26.8 4-7.9-8.5-3.4 6.7z"/> <path class="filled" d="m214.9 241.8c1.6-1.4 4.4-.2 6.5 2.4l3 3.6c1.3 1.6 3 2.4 5.1.5l5.4-4.5-9.2-11.1 11.9-10 24.8 29.7-20.4 17.1c-7 5.8-14.3 5.8-18.2 1.1l-.6-.7c-2.4-2.8-2.3-7.4.8-11.4-4.9 3.1-9.1 1.8-11.7-1.3l-2.4-2.9c-1.6-1.9-3.4-3.2-5.5-3.6l-.1-.1zm18.9 16.6c1.6 1.9 3.3 1.7 6.2-.6l4-3.3-5-6-4 3.3c-2.8 2.3-3.2 4.1-1.7 6z"/> <path class="stroked" d="m173.8 259.7c2.1-.6 4.1 1.5 5.1 4.7l1.4 4.5c.6 2 1.8 3.3 4.5 2.5l6.8-2-4.1-13.8 14.9-4.5 11.1 37-25.6 7.7c-8.7 2.6-15.4-.3-17.2-6.1l-.3-.9c-1.1-3.6.8-7.7 5.2-10.2-5.7.9-9.1-1.9-10.3-5.8l-1.1-3.6c-.7-2.3-1.9-4.2-3.6-5.5l-.1-.2zm10.9 22.7c.7 2.4 2.4 2.9 5.9 1.9l5-1.5-2.2-7.5-5 1.5c-3.5 1-4.6 2.5-3.9 4.8z"/> <path class="stroked" d="m158.5 263-4 38.5-38.2-3.9 1.1-10.7 22.7 2.4.6-5.4-15-1.6.6-5.5 15 1.6.5-5.2-22.7-2.4 1.2-11.6z"/> <path class="stroked" d="m100 247.8c8.3 4.3 14 10.4 17.4 16.3l-8.7 4.7c-3.1-5-8.3-10.1-12.8-12.4-4.3-2.2-6.2-1.8-6.9-.5-2.3 4.3 22.6 14 16 26.4-3.2 6.2-13.6 7.3-24.2 1.8-8.2-4.3-12.1-9.2-15.6-15.1l8.8-4c3.1 4.7 7.3 8.8 11.5 10.9 3.4 1.8 5.5 1.6 6.1.4 2.5-4.7-22.8-14.4-16.5-26.4 3.7-6.9 14.6-7.5 24.9-2.1z"/> <path class="stroked" d="m78.8 237-29.5 25-24.8-29.3 8.2-7 14.8 17.4 4.1-3.5-9.8-11.5 4.3-3.6 9.8 11.5 4-3.4-14.8-17.4 8.9-7.5z"/> <path class="stroked" d="m42.8 176c.7 2-1.5 4.1-4.6 5.1l-4.5 1.4c-2 .6-3.3 1.9-2.4 4.6l2.2 6.7 13.7-4.4 4.8 14.8-36.8 11.9-8.2-25.3c-2.8-8.7 0-15.4 5.8-17.3l.9-.3c3.5-1.1 7.7.7 10.3 5-1-5.7 1.7-9.2 5.6-10.4l3.6-1.2c2.3-.7 4.2-2 5.4-3.7l.2-.1zm-22.5 11.4c-2.4.8-2.9 2.5-1.7 5.9l1.6 4.9 7.4-2.4-1.6-4.9c-1.1-3.5-2.6-4.5-4.9-3.8z"/> <path class="stroked" d="m41.6 133.2-1.4 14.9-40.2 13.5 1.6-16.9 23.7-6.9-21.9-11.7 1.4-14.1z"/> <path class="stroked" d="m55.7 94.2-6.7-.9-6.1 12.1 4.6 5.1-6.1 12.1-27.4-31.5 7.6-14.9 41.7 3.3zm-26.8-4 7.9 8.5 3.4-6.7z"/> <path class="stroked" d="m87.1 60.2c-1.6 1.4-4.4.2-6.5-2.4l-3-3.6c-1.3-1.6-3-2.4-5.1-.5l-5.5 4.5 9.2 11.1-11.9 10-24.8-29.7 20.5-17.1c7-5.8 14.3-5.8 18.2-1.1l.6.7c2.4 2.8 2.3 7.4-.8 11.4 4.9-3.1 9.1-1.8 11.7 1.3l2.4 2.9c1.6 1.9 3.4 3.2 5.5 3.6l.1.1zm-18.9-16.6c-1.6-1.9-3.3-1.7-6.2.6l-4 3.3 5 6 4-3.3c2.8-2.3 3.2-4.1 1.7-5.9z"/> </svg>